<svg width="93" height="79" viewBox="0 0 93 79" fill="none" xmlns="http://www.w3.org/2000/svg">
<g clip-path="url(#clip0_17_805)">
<path d="M0.0988125 41.1491C1.12762 62.1607 21.515 79 46.5 79C71.485 79 91.8724 62.1607 92.9012 41.1491C92.9624 41.0168 92.9958 40.8765 93 40.7344C93 40.6455 92.9622 40.569 92.9419 40.4875C92.9506 40.1567 93 39.8333 93 39.5C93 17.7207 72.1389 0 46.5 0C20.8611 0 0 17.7207 0 39.5C0 39.8333 0.0494062 40.1567 0.058125 40.4875C0.0377812 40.569 0 40.6455 0 40.7344C0 40.8825 0.0435938 41.0183 0.0988125 41.1491ZM72.4267 56.1443C68.4777 54.7519 64.3737 53.7006 60.1768 53.0065C60.636 49.4194 60.9063 45.6941 60.9906 41.9712H75.4637C75.1992 47.042 74.1384 51.8289 72.4267 56.1443ZM78.367 41.9688H89.9455C89.4332 48.6903 86.7559 55.1629 82.2062 60.6794C79.9461 59.3284 77.5576 58.1393 75.0655 57.1244C76.9401 52.5103 78.0938 47.3901 78.367 41.9688ZM36.0055 55.0186C39.477 54.5534 42.9856 54.3173 46.5 54.3125C50.0573 54.3125 53.5709 54.5643 56.9916 55.0186C54.9746 68.1893 50.5687 76.5312 46.5 76.5312C42.4313 76.5312 38.0254 68.1893 36.0055 55.0186ZM40.4201 75.7018C32.425 73.5243 25.6622 67.1327 21.5818 58.46C25.3193 57.1321 29.204 56.1256 33.1777 55.4555C34.5117 64.0863 36.9501 71.6061 40.4201 75.7018ZM35.6713 26.4378C39.254 26.9118 42.8741 27.152 46.5 27.1562C50.1259 27.152 53.746 26.9118 57.3287 26.4378C57.8286 30.4372 58.125 34.802 58.125 39.5H34.875C34.875 34.802 35.1714 30.4372 35.6713 26.4378ZM58.0814 41.9688C58.012 45.5076 57.7599 49.0421 57.3258 52.5622C53.7441 52.088 50.1249 51.8478 46.5 51.8438C42.8741 51.8479 39.254 52.0881 35.6713 52.5622C35.2359 49.0422 34.9838 45.5076 34.9157 41.9688H58.0814ZM59.8252 55.4555C63.9055 56.1517 67.797 57.1639 71.4211 58.46C67.3407 67.1327 60.5779 73.5243 52.5828 75.7018C56.0499 71.6061 58.4883 64.0863 59.8252 55.4555ZM61.0312 39.5C61.0312 34.9674 60.7348 30.3755 60.1768 25.9959C64.4781 25.2751 68.5933 24.2184 72.4267 22.8582C74.4145 27.8673 75.5625 33.5108 75.5625 39.5H61.0312ZM59.8252 23.5445C58.4883 14.9137 56.0528 7.39144 52.5799 3.29825C60.575 5.47569 67.3378 11.8673 71.4182 20.54C67.6821 21.869 63.7983 22.8756 59.8252 23.5445ZM56.9945 23.9814C53.5709 24.4357 50.0573 24.6875 46.5 24.6875C42.9427 24.6875 39.4291 24.4357 36.0055 23.9814C38.0254 10.8107 42.4313 2.46875 46.5 2.46875C50.5687 2.46875 54.9746 10.8107 56.9945 23.9814ZM33.1748 23.5445C29.2012 22.8741 25.3166 21.8676 21.5789 20.54C25.6593 11.8673 32.4221 5.47569 40.4172 3.29825C36.9501 7.39391 34.5117 14.9137 33.1748 23.5445ZM32.8232 25.9959C32.2555 30.4812 31.9703 34.9889 31.9688 39.5H17.4375C17.4375 33.5108 18.5855 27.8673 20.5733 22.8557C24.4067 24.2184 28.5219 25.2726 32.8232 25.9959ZM32.0094 41.9688C32.0937 45.6916 32.364 49.417 32.8232 53.0065C28.5219 53.7274 24.4067 54.784 20.5733 56.1443C18.8616 51.8289 17.8008 47.042 17.5363 41.9688H32.0094ZM17.9316 57.1244C15.441 58.1402 13.0536 59.3293 10.7938 60.6794C6.24371 55.1631 3.56638 48.6904 3.05447 41.9688H14.633C14.9062 47.3901 16.0599 52.5103 17.9316 57.1244ZM12.5347 62.6569C14.5686 61.4401 16.7134 60.3628 18.9487 59.4352C21.8666 65.57 26.0662 70.663 31.1143 74.1069C23.8315 71.7634 17.4174 67.8106 12.5347 62.6569ZM61.8857 74.1045C66.9368 70.663 71.1334 65.5675 74.0512 59.4327C76.3472 60.3807 78.4746 61.4719 80.4653 62.6544C75.5842 67.8096 69.1696 71.7627 61.8857 74.1045ZM78.4688 39.5C78.4688 33.1627 77.2249 27.1883 75.0684 21.8756C77.6259 20.8338 80.0033 19.6364 82.2091 18.3206C87.3421 24.5222 90.0958 31.9189 90.0938 39.5H78.4688ZM80.4682 16.3431C78.4775 17.5257 76.3501 18.6168 74.0542 19.5648C71.1363 13.43 66.9368 8.3345 61.8886 4.89306C69.1706 7.23789 75.5843 11.1905 80.4682 16.3431ZM31.1143 4.89553C26.0633 8.33697 21.8666 13.4325 18.9487 19.5673C16.7136 18.6385 14.5689 17.5604 12.5347 16.3431C17.4168 11.1895 23.8312 7.23733 31.1143 4.89553ZM10.7938 18.3206C13.0532 19.6713 15.4407 20.8603 17.9316 21.8756C15.6586 27.5503 14.5096 33.5059 14.5312 39.5H2.90625C2.90625 31.6247 5.83866 24.3295 10.7938 18.3206Z" fill="#5AA9F3"/>
</g>
<defs>
<clipPath id="clip0_17_805">
<rect width="93" height="79" fill="white"/>
</clipPath>
</defs>
</svg>
