<svg width="19" height="19" viewBox="0 0 19 19" fill="none" xmlns="http://www.w3.org/2000/svg">
<g clip-path="url(#clip0_148_259)">
<path d="M0 19H9.5V0H0V19ZM5.9375 2.375H8.3125V4.75H5.9375V2.375ZM5.9375 7.125H8.3125V9.5H5.9375V7.125ZM5.9375 11.875H8.3125V14.25H5.9375V11.875ZM1.1875 2.375H3.5625V4.75H1.1875V2.375ZM1.1875 7.125H3.5625V9.5H1.1875V7.125ZM1.1875 11.875H3.5625V14.25H1.1875V11.875ZM10.6875 5.9375H19V7.125H10.6875V5.9375ZM10.6875 19H13.0625V14.25H16.625V19H19V8.3125H10.6875V19Z" fill="#F6FAFF"/>
</g>
<defs>
<clipPath id="clip0_148_259">
<rect width="19" height="19" fill="white"/>
</clipPath>
</defs>
</svg>
